<mxfile host="app.diagrams.net" agent="Mozilla/5.0 (X11; Linux x86_64; rv:138.0) Gecko/20100101 Firefox/138.0" version="27.0.9">
  <diagram name="Page-1" id="0r3azvQe7X7Bsw3RrxRl">
    <mxGraphModel dx="697" dy="354" grid="1" gridSize="10" guides="1" tooltips="1" connect="1" arrows="1" fold="1" page="1" pageScale="1" pageWidth="850" pageHeight="1100" background="none" math="0" shadow="0">
      <root>
        <mxCell id="0" />
        <mxCell id="1" parent="0" />
        <mxCell id="Kavl6Gz75BnC4-qOEY1Z-1" value="" style="pointerEvents=1;verticalLabelPosition=bottom;shadow=0;dashed=0;align=center;html=1;verticalAlign=top;shape=mxgraph.electrical.resistors.resistor_1;rotation=90;" parent="1" vertex="1">
          <mxGeometry x="190" y="150" width="100" height="20" as="geometry" />
        </mxCell>
        <mxCell id="Kavl6Gz75BnC4-qOEY1Z-2" value="" style="pointerEvents=1;fillColor=strokeColor;verticalLabelPosition=bottom;shadow=0;dashed=0;align=center;html=1;verticalAlign=top;shape=mxgraph.electrical.diodes.diode;rotation=90;" parent="1" vertex="1">
          <mxGeometry x="190" y="267.5" width="100" height="45" as="geometry" />
        </mxCell>
        <mxCell id="Kavl6Gz75BnC4-qOEY1Z-4" value="" style="pointerEvents=1;fillColor=strokeColor;verticalLabelPosition=bottom;shadow=0;dashed=0;align=center;html=1;verticalAlign=top;shape=mxgraph.electrical.diodes.diode;rotation=90;" parent="1" vertex="1">
          <mxGeometry x="270" y="267.5" width="100" height="45" as="geometry" />
        </mxCell>
        <mxCell id="Kavl6Gz75BnC4-qOEY1Z-5" value="" style="endArrow=none;html=1;rounded=0;entryX=0;entryY=0.5;entryDx=0;entryDy=0;entryPerimeter=0;exitX=0;exitY=0.5;exitDx=0;exitDy=0;exitPerimeter=0;" parent="1" source="Kavl6Gz75BnC4-qOEY1Z-4" target="Kavl6Gz75BnC4-qOEY1Z-2" edge="1">
          <mxGeometry width="50" height="50" relative="1" as="geometry">
            <mxPoint x="520" y="370" as="sourcePoint" />
            <mxPoint x="570" y="320" as="targetPoint" />
          </mxGeometry>
        </mxCell>
        <mxCell id="Kavl6Gz75BnC4-qOEY1Z-6" value="" style="endArrow=none;html=1;rounded=0;entryX=1;entryY=0.5;entryDx=0;entryDy=0;entryPerimeter=0;exitX=0;exitY=0.5;exitDx=0;exitDy=0;exitPerimeter=0;" parent="1" source="Kavl6Gz75BnC4-qOEY1Z-2" target="Kavl6Gz75BnC4-qOEY1Z-1" edge="1">
          <mxGeometry width="50" height="50" relative="1" as="geometry">
            <mxPoint x="520" y="370" as="sourcePoint" />
            <mxPoint x="570" y="320" as="targetPoint" />
          </mxGeometry>
        </mxCell>
        <mxCell id="Kavl6Gz75BnC4-qOEY1Z-7" value="" style="verticalLabelPosition=bottom;shadow=0;dashed=0;align=center;fillColor=strokeColor;html=1;verticalAlign=top;strokeWidth=1;shape=mxgraph.electrical.miscellaneous.monocell_battery;rotation=-90;" parent="1" vertex="1">
          <mxGeometry x="110" y="207.5" width="100" height="60" as="geometry" />
        </mxCell>
        <mxCell id="Kavl6Gz75BnC4-qOEY1Z-8" value="" style="endArrow=none;html=1;rounded=0;entryX=0;entryY=0.5;entryDx=0;entryDy=0;entryPerimeter=0;exitX=1;exitY=0.5;exitDx=0;exitDy=0;exitPerimeter=0;" parent="1" source="Kavl6Gz75BnC4-qOEY1Z-7" target="Kavl6Gz75BnC4-qOEY1Z-1" edge="1">
          <mxGeometry width="50" height="50" relative="1" as="geometry">
            <mxPoint x="160" y="70" as="sourcePoint" />
            <mxPoint x="450" y="210" as="targetPoint" />
            <Array as="points">
              <mxPoint x="160" y="110" />
            </Array>
          </mxGeometry>
        </mxCell>
        <mxCell id="Kavl6Gz75BnC4-qOEY1Z-9" value="" style="endArrow=none;html=1;rounded=0;entryX=0;entryY=0.5;entryDx=0;entryDy=0;entryPerimeter=0;" parent="1" target="Kavl6Gz75BnC4-qOEY1Z-7" edge="1">
          <mxGeometry width="50" height="50" relative="1" as="geometry">
            <mxPoint x="320" y="380" as="sourcePoint" />
            <mxPoint x="450" y="210" as="targetPoint" />
            <Array as="points">
              <mxPoint x="160" y="380" />
            </Array>
          </mxGeometry>
        </mxCell>
        <mxCell id="Kavl6Gz75BnC4-qOEY1Z-10" value="" style="endArrow=none;html=1;rounded=0;exitX=1;exitY=0.5;exitDx=0;exitDy=0;exitPerimeter=0;" parent="1" source="Kavl6Gz75BnC4-qOEY1Z-2" edge="1">
          <mxGeometry width="50" height="50" relative="1" as="geometry">
            <mxPoint x="400" y="260" as="sourcePoint" />
            <mxPoint x="240" y="380" as="targetPoint" />
          </mxGeometry>
        </mxCell>
        <mxCell id="Kavl6Gz75BnC4-qOEY1Z-11" value="" style="endArrow=classic;html=1;rounded=0;strokeColor=light-dark(#0000CC,#0000CC);" parent="1" edge="1">
          <mxGeometry width="50" height="50" relative="1" as="geometry">
            <mxPoint x="360" y="120" as="sourcePoint" />
            <mxPoint x="360" y="230" as="targetPoint" />
          </mxGeometry>
        </mxCell>
        <mxCell id="Kavl6Gz75BnC4-qOEY1Z-12" value="" style="endArrow=classic;html=1;rounded=0;strokeColor=light-dark(#0000CC,#0000CC);" parent="1" edge="1">
          <mxGeometry width="50" height="50" relative="1" as="geometry">
            <mxPoint x="360" y="250" as="sourcePoint" />
            <mxPoint x="360" y="370" as="targetPoint" />
          </mxGeometry>
        </mxCell>
        <mxCell id="Kavl6Gz75BnC4-qOEY1Z-13" value="" style="endArrow=classic;html=1;rounded=0;strokeColor=light-dark(#0000CC,#0000CC);" parent="1" edge="1">
          <mxGeometry width="50" height="50" relative="1" as="geometry">
            <mxPoint x="120" y="120" as="sourcePoint" />
            <mxPoint x="120" y="370" as="targetPoint" />
          </mxGeometry>
        </mxCell>
        <mxCell id="Kavl6Gz75BnC4-qOEY1Z-14" value="&lt;div&gt;U&lt;sub&gt;S&lt;/sub&gt;&lt;/div&gt;&lt;div&gt;9 V&lt;/div&gt;" style="text;html=1;align=center;verticalAlign=middle;whiteSpace=wrap;rounded=0;" parent="1" vertex="1">
          <mxGeometry x="80" y="222.5" width="40" height="30" as="geometry" />
        </mxCell>
        <mxCell id="Kavl6Gz75BnC4-qOEY1Z-15" value="&lt;div&gt;U&lt;sub&gt;R&lt;/sub&gt;&lt;/div&gt;&lt;div&gt;7 V&lt;/div&gt;" style="text;html=1;align=center;verticalAlign=middle;whiteSpace=wrap;rounded=0;" parent="1" vertex="1">
          <mxGeometry x="360" y="145" width="40" height="30" as="geometry" />
        </mxCell>
        <mxCell id="Kavl6Gz75BnC4-qOEY1Z-16" value="&lt;div&gt;U&lt;sub&gt;D&lt;/sub&gt;&lt;/div&gt;&lt;div&gt;2 V&lt;/div&gt;" style="text;html=1;align=center;verticalAlign=middle;whiteSpace=wrap;rounded=0;" parent="1" vertex="1">
          <mxGeometry x="360" y="275" width="40" height="30" as="geometry" />
        </mxCell>
        <mxCell id="PMavt1n5yDE-VNBwmZsP-1" value="" style="endArrow=none;html=1;rounded=0;entryX=1;entryY=0.5;entryDx=0;entryDy=0;entryPerimeter=0;" edge="1" parent="1" target="Kavl6Gz75BnC4-qOEY1Z-4">
          <mxGeometry width="50" height="50" relative="1" as="geometry">
            <mxPoint x="320" y="380" as="sourcePoint" />
            <mxPoint x="450" y="250" as="targetPoint" />
          </mxGeometry>
        </mxCell>
        <mxCell id="PMavt1n5yDE-VNBwmZsP-2" value="" style="endArrow=classic;html=1;rounded=0;strokeColor=light-dark(#CC0000,#CC0000);exitX=1;exitY=0.5;exitDx=0;exitDy=0;exitPerimeter=0;" edge="1" parent="1" source="Kavl6Gz75BnC4-qOEY1Z-4">
          <mxGeometry width="50" height="50" relative="1" as="geometry">
            <mxPoint x="400" y="300" as="sourcePoint" />
            <mxPoint x="320" y="360" as="targetPoint" />
          </mxGeometry>
        </mxCell>
        <mxCell id="PMavt1n5yDE-VNBwmZsP-5" value="" style="endArrow=classic;html=1;rounded=0;strokeColor=light-dark(#CC0000,#CC0000);exitX=1;exitY=0.5;exitDx=0;exitDy=0;exitPerimeter=0;" edge="1" parent="1" source="Kavl6Gz75BnC4-qOEY1Z-2">
          <mxGeometry width="50" height="50" relative="1" as="geometry">
            <mxPoint x="280" y="340" as="sourcePoint" />
            <mxPoint x="240" y="360" as="targetPoint" />
          </mxGeometry>
        </mxCell>
        <mxCell id="PMavt1n5yDE-VNBwmZsP-6" value="&lt;div&gt;I&lt;sub&gt;1&lt;/sub&gt;&lt;/div&gt;&lt;div&gt;&lt;sub&gt;15 mA&lt;/sub&gt;&lt;/div&gt;" style="text;html=1;align=center;verticalAlign=middle;whiteSpace=wrap;rounded=0;" vertex="1" parent="1">
          <mxGeometry x="200" y="340" width="40" height="30" as="geometry" />
        </mxCell>
        <mxCell id="PMavt1n5yDE-VNBwmZsP-9" value="&lt;div&gt;I&lt;sub&gt;2&lt;/sub&gt;&lt;/div&gt;&lt;div&gt;&lt;sub&gt;15 mA&lt;/sub&gt;&lt;/div&gt;" style="text;html=1;align=center;verticalAlign=middle;whiteSpace=wrap;rounded=0;" vertex="1" parent="1">
          <mxGeometry x="280" y="340" width="40" height="30" as="geometry" />
        </mxCell>
        <mxCell id="PMavt1n5yDE-VNBwmZsP-10" value="" style="endArrow=classic;html=1;rounded=0;strokeColor=light-dark(#CC0000,#CC0000);exitX=1;exitY=0.5;exitDx=0;exitDy=0;exitPerimeter=0;" edge="1" parent="1" source="Kavl6Gz75BnC4-qOEY1Z-1">
          <mxGeometry width="50" height="50" relative="1" as="geometry">
            <mxPoint x="270" y="200" as="sourcePoint" />
            <mxPoint x="240" y="230" as="targetPoint" />
          </mxGeometry>
        </mxCell>
        <mxCell id="PMavt1n5yDE-VNBwmZsP-11" value="R" style="text;html=1;align=center;verticalAlign=middle;whiteSpace=wrap;rounded=0;" vertex="1" parent="1">
          <mxGeometry x="260" y="145" width="20" height="30" as="geometry" />
        </mxCell>
        <mxCell id="PMavt1n5yDE-VNBwmZsP-12" value="&lt;div&gt;I&lt;sub&gt;1&lt;/sub&gt;&lt;/div&gt;&lt;div&gt;&lt;sub&gt;15 mA&lt;/sub&gt;&lt;/div&gt;" style="text;html=1;align=center;verticalAlign=middle;whiteSpace=wrap;rounded=0;" vertex="1" parent="1">
          <mxGeometry x="200" y="207.5" width="40" height="30" as="geometry" />
        </mxCell>
      </root>
    </mxGraphModel>
  </diagram>
</mxfile>
